<svg width="41" height="40" viewBox="0 0 41 40" fill="none" xmlns="http://www.w3.org/2000/svg">
<path d="M21.3888 4C24.5631 4 27.6455 4.39809 30.5901 5.14765C30.5117 7.14302 30.2299 9.08543 29.7652 10.9542C27.0961 10.2198 24.2876 9.82779 21.3888 9.82779C17.5102 9.82779 13.7934 10.5295 10.3555 11.8144C10.695 13.1085 11.1119 14.3706 11.6007 15.5955C14.6467 14.4413 17.9449 13.8103 21.3887 13.8103C23.8588 13.8103 26.254 14.1349 28.5349 14.7444C27.8357 16.4747 26.9727 18.1195 25.9654 19.6591C24.4874 19.3516 22.9567 19.19 21.3889 19.19C18.8083 19.19 16.3287 19.6276 14.0184 20.4335C16.0048 23.6948 18.5477 26.5716 21.513 28.928C28.3889 23.4642 32.9938 15.2027 33.6559 5.83646C35.5625 6.5482 37.3965 7.41185 39.1436 8.41292L39.133 8.49531C39.3867 8.63295 39.6386 8.77345 39.8887 8.91676C38.6476 18.6699 33.7643 27.2676 26.6647 33.266C25.0191 34.6562 23.2547 35.907 21.3888 37C19.5229 35.907 17.758 34.6564 16.1124 33.2661C12.8988 30.5509 10.1395 27.3031 7.96629 23.6567C7.96628 23.6567 7.96629 23.6567 7.96629 23.6567C7.0442 22.1095 6.22766 20.4906 5.52681 18.8101C5.5268 18.8101 5.52681 18.8101 5.52681 18.8101C5.00379 17.556 4.54521 16.2676 4.15521 14.9493C4.15521 14.9493 4.15522 14.9493 4.15521 14.9493C3.57845 12.9995 3.15173 10.9841 2.88867 8.91681C4.63577 7.91574 6.46978 7.05204 8.37639 6.3403C8.37639 6.34028 8.37639 6.34032 8.37639 6.3403C12.4314 4.82656 16.8148 4 21.3888 4Z" fill="#AFA0D9" fill-opacity="0.5"/>
<circle cx="30.8887" cy="28" r="10" fill="#DC3732"/>
<path d="M34.6445 31.7556L27.1337 24.2448" stroke="white" stroke-width="2" stroke-linecap="round"/>
<path d="M27.1328 31.7556L34.6436 24.2448" stroke="white" stroke-width="2" stroke-linecap="round"/>
</svg>
